<svg width="128" height="20" viewBox="0 0 128 20" fill="none" xmlns="http://www.w3.org/2000/svg">
<path fill-rule="evenodd" clip-rule="evenodd" d="M10.4889 7.94447L11.6834 12.5874H7.44119L8.59712 7.94447H3.23886L0 19.6461H5.84168L6.53712 16.7948H12.5179L13.2481 19.6461H19.1246L15.8648 7.94447H10.4889ZM9.61157 4.53414H14.9148L13.7001 0.17386H5.38965L4.18279 4.53414H9.44616L9.52751 4.2074L9.61157 4.53414ZM20.5199 4.86807C20.149 6.14304 19.9636 7.8005 19.9636 9.84046C19.9636 11.95 20.1374 13.6654 20.4851 14.9867C20.856 16.2849 21.3776 17.2932 22.0499 18.0119C22.7221 18.7073 23.5219 19.1825 24.4491 19.4375C25.3764 19.6925 26.4195 19.82 27.5786 19.82C29.3636 19.82 30.7776 19.7505 31.8208 19.6114C32.8639 19.4491 33.7332 19.2289 34.4287 18.9507V14.7433C33.9187 14.7897 33.2233 14.8476 32.3424 14.9172C31.4615 14.9635 30.314 14.9867 28.8999 14.9867C28.2045 14.9867 27.6366 14.9056 27.1961 14.7433C26.7789 14.581 26.4543 14.3144 26.2225 13.9435C26.0139 13.5495 25.8632 13.0279 25.7705 12.3788C25.7009 11.7297 25.6662 10.9068 25.6662 9.91C25.6662 8.40322 25.7589 7.29051 25.9443 6.57189C26.153 5.83009 26.4891 5.35488 26.9527 5.14625C27.4163 4.91443 28.0422 4.79853 28.8304 4.79853C29.6649 4.79853 30.4415 4.82171 31.1601 4.86807C31.8787 4.91443 32.5046 4.97239 33.0378 5.04193C33.5942 5.11147 34.0578 5.18102 34.4287 5.25056V1.07793C34.081 0.91566 33.5942 0.753391 32.9683 0.591122C32.3656 0.428853 31.6122 0.289766 30.7081 0.17386C29.804 0.0579533 28.7493 0 27.5438 0C26.4543 0 25.4459 0.139087 24.5187 0.417262C23.5914 0.672256 22.7801 1.15906 22.0846 1.87768C21.4124 2.5963 20.8908 3.5931 20.5199 4.86807ZM51.8802 0.17386H36.0242V4.97239H41.1009V19.6461H46.8035V4.97239H51.8802V0.17386ZM59.6223 0.17386H53.9197V19.6461H59.6223V0.17386ZM63.5247 1.982C62.9916 2.63108 62.725 3.56992 62.725 4.79853V19.6461H68.4276V12.8656L75.7297 12.5874V8.55389L68.4276 8.27572V5.77214C68.4276 5.56351 68.5203 5.35488 68.7058 5.14625C68.8912 4.91443 69.2042 4.79853 69.6446 4.79853H77.1206V0.625893C76.4251 0.509987 75.7181 0.428853 74.9995 0.382491C74.304 0.336127 73.6086 0.301355 72.9132 0.278174C72.2409 0.231812 71.5918 0.208631 70.9659 0.208631C70.3632 0.18545 69.8069 0.17386 69.2969 0.17386H67.9755C67.1874 0.17386 66.3876 0.312947 65.5763 0.591122C64.7649 0.846117 64.0811 1.30974 63.5247 1.982ZM79.9025 1.982C79.3693 2.63108 79.1027 3.56992 79.1027 4.79853V15.3692C79.1027 16.3892 79.2997 17.2005 79.6938 17.8032C80.1111 18.4059 80.6095 18.858 81.189 19.1593C81.7917 19.4375 82.406 19.6114 83.0319 19.6809C83.6578 19.7736 84.191 19.82 84.6314 19.82C85.2341 19.82 85.8369 19.8084 86.4396 19.7852C87.0655 19.7852 87.6798 19.762 88.2825 19.7157C88.9084 19.6925 89.5227 19.6693 90.1254 19.6461C90.7513 19.5998 91.3424 19.5534 91.8988 19.5071C92.4551 19.4375 92.9883 19.3796 93.4983 19.3332V15.1258H85.8484C85.663 15.1258 85.4891 15.0794 85.3269 14.9867C85.1646 14.894 85.0371 14.7549 84.9444 14.5694C84.8517 14.3608 84.8053 14.129 84.8053 13.874V12.2049L92.1074 11.9268V7.89323L84.8053 7.61505V5.84168C84.8053 5.49396 84.9212 5.23897 85.153 5.0767C85.3848 4.89125 85.7094 4.79853 86.1266 4.79853H93.4983V0.591122C93.1042 0.54476 92.6869 0.509988 92.2465 0.486807C91.806 0.440444 91.3308 0.405672 90.8208 0.382491C90.3109 0.336127 89.7429 0.301355 89.117 0.278174C88.5143 0.231812 87.8189 0.208631 87.0307 0.208631C86.2425 0.18545 85.3501 0.17386 84.3533 0.17386C83.5651 0.17386 82.7653 0.312947 81.954 0.591122C81.1426 0.846117 80.4588 1.30974 79.9025 1.982ZM96.5179 1.982C95.9847 2.63108 95.7181 3.56992 95.7181 4.79853V15.3692C95.7181 16.3892 95.9151 17.2005 96.3092 17.8032C96.7265 18.4059 97.2249 18.858 97.8044 19.1593C98.4071 19.4375 99.0214 19.6114 99.6473 19.6809C100.273 19.7736 100.806 19.82 101.247 19.82C101.85 19.82 102.452 19.8084 103.055 19.7852C103.681 19.7852 104.295 19.762 104.898 19.7157C105.524 19.6925 106.138 19.6693 106.741 19.6461C107.367 19.5998 107.958 19.5534 108.514 19.5071C109.071 19.4375 109.604 19.3796 110.114 19.3332V15.1258H102.464C102.278 15.1258 102.105 15.0794 101.942 14.9867C101.78 14.894 101.653 14.7549 101.56 14.5694C101.467 14.3608 101.421 14.129 101.421 13.874V12.2049L108.723 11.9268V7.89323L101.421 7.61505V5.84168C101.421 5.49396 101.537 5.23897 101.768 5.0767C102 4.89125 102.325 4.79853 102.742 4.79853H110.114V0.591122C109.72 0.54476 109.302 0.509988 108.862 0.486807C108.421 0.440444 107.946 0.405672 107.436 0.382491C106.926 0.336127 106.358 0.301355 105.732 0.278174C105.13 0.231812 104.434 0.208631 103.646 0.208631C102.858 0.18545 101.965 0.17386 100.969 0.17386C100.18 0.17386 99.3807 0.312947 98.5694 0.591122C97.758 0.846117 97.0742 1.30974 96.5179 1.982ZM127.521 0.17386H111.665V4.97239H116.741V19.6461H122.444V4.97239H127.521V0.17386Z" fill="black"/>
</svg>
