<svg width="96" height="15" viewBox="0 0 96 15" fill="none" xmlns="http://www.w3.org/2000/svg">
<g clip-path="url(#clip0_407_114)">
<path fill-rule="evenodd" clip-rule="evenodd" d="M7.84287 5.94031L8.736 9.412H5.564L6.42832 5.94031H2.42179L0 14.69H4.368L4.888 12.558H9.36L9.906 14.69H14.3L11.8626 5.94031H7.84287ZM7.18685 3.39031H11.1522L10.244 0.13H4.03L3.12759 3.39031H7.06318L7.124 3.146L7.18685 3.39031ZM15.3433 3.64C15.066 4.59333 14.9273 5.83267 14.9273 7.358C14.9273 8.93533 15.0573 10.218 15.3173 11.206C15.5947 12.1767 15.9847 12.9307 16.4873 13.468C16.99 13.988 17.588 14.3433 18.2813 14.534C18.9747 14.7247 19.7547 14.82 20.6213 14.82C21.956 14.82 23.0133 14.768 23.7933 14.664C24.5733 14.5427 25.2233 14.378 25.7433 14.17V11.024C25.362 11.0587 24.842 11.102 24.1833 11.154C23.5247 11.1887 22.6667 11.206 21.6093 11.206C21.0893 11.206 20.6647 11.1453 20.3353 11.024C20.0233 10.9027 19.7807 10.7033 19.6073 10.426C19.4513 10.1313 19.3387 9.74133 19.2693 9.256C19.2173 8.77067 19.1913 8.15533 19.1913 7.41C19.1913 6.28333 19.2607 5.45133 19.3993 4.914C19.5553 4.35933 19.8067 4.004 20.1533 3.848C20.5 3.67467 20.968 3.588 21.5573 3.588C22.1813 3.588 22.762 3.60533 23.2993 3.64C23.8367 3.67467 24.3047 3.718 24.7033 3.77C25.1193 3.822 25.466 3.874 25.7433 3.926V0.805999C25.4833 0.684666 25.1193 0.563333 24.6513 0.441999C24.2007 0.320666 23.6373 0.216667 22.9613 0.13C22.2853 0.0433334 21.4967 0 20.5953 0C19.7807 0 19.0267 0.104 18.3333 0.311999C17.64 0.502665 17.0333 0.866665 16.5133 1.404C16.0107 1.94133 15.6207 2.68667 15.3433 3.64ZM38.7924 0.13H26.9364V3.718H30.7324V14.69H34.9964V3.718H38.7924V0.13ZM44.5813 0.13H40.3173V14.69H44.5813V0.13ZM47.4993 1.482C47.1007 1.96733 46.9013 2.66933 46.9013 3.588V14.69H51.1653V9.62L56.6253 9.412V6.396L51.1653 6.188V4.316C51.1653 4.16 51.2347 4.004 51.3733 3.848C51.512 3.67467 51.746 3.588 52.0753 3.588H57.6653V0.467999C57.1453 0.381332 56.6167 0.320666 56.0793 0.286C55.5593 0.251332 55.0393 0.225332 54.5193 0.207999C54.0167 0.173333 53.5313 0.156 53.0633 0.156C52.6127 0.138667 52.1967 0.13 51.8153 0.13H50.8273C50.238 0.13 49.64 0.234 49.0333 0.441999C48.4267 0.632666 47.9153 0.979333 47.4993 1.482ZM59.7454 1.482C59.3468 1.96733 59.1474 2.66933 59.1474 3.588V11.492C59.1474 12.2547 59.2948 12.8613 59.5894 13.312C59.9014 13.7627 60.2741 14.1007 60.7074 14.326C61.1581 14.534 61.6174 14.664 62.0854 14.716C62.5534 14.7853 62.9521 14.82 63.2814 14.82C63.7321 14.82 64.1828 14.8113 64.6334 14.794C65.1014 14.794 65.5608 14.7767 66.0114 14.742C66.4794 14.7247 66.9388 14.7073 67.3894 14.69C67.8574 14.6553 68.2994 14.6207 68.7154 14.586C69.1314 14.534 69.5301 14.4907 69.9114 14.456V11.31H64.1914C64.0528 11.31 63.9228 11.2753 63.8014 11.206C63.6801 11.1367 63.5848 11.0327 63.5154 10.894C63.4461 10.738 63.4114 10.5647 63.4114 10.374V9.126L68.8714 8.918V5.902L63.4114 5.694V4.368C63.4114 4.108 63.4981 3.91733 63.6714 3.796C63.8448 3.65733 64.0874 3.588 64.3994 3.588H69.9114V0.441999C69.6168 0.407333 69.3048 0.381333 68.9754 0.364C68.6461 0.329333 68.2908 0.303333 67.9094 0.286C67.5281 0.251332 67.1034 0.225332 66.6354 0.207999C66.1848 0.173333 65.6648 0.156 65.0754 0.156C64.4861 0.138667 63.8188 0.13 63.0734 0.13C62.4841 0.13 61.8861 0.234 61.2794 0.441999C60.6728 0.632666 60.1614 0.979333 59.7454 1.482ZM72.1693 1.482C71.7706 1.96733 71.5713 2.66933 71.5713 3.588V11.492C71.5713 12.2547 71.7186 12.8613 72.0133 13.312C72.3252 13.7627 72.6979 14.1007 73.1312 14.326C73.5819 14.534 74.0413 14.664 74.5092 14.716C74.9772 14.7853 75.3759 14.82 75.7053 14.82C76.1559 14.82 76.6066 14.8113 77.0573 14.794C77.5253 14.794 77.9846 14.7767 78.4352 14.742C78.9033 14.7247 79.3626 14.7073 79.8132 14.69C80.2812 14.6553 80.7233 14.6207 81.1393 14.586C81.5553 14.534 81.9539 14.4907 82.3353 14.456V11.31H76.6152C76.4766 11.31 76.3466 11.2753 76.2253 11.206C76.1039 11.1367 76.0086 11.0327 75.9392 10.894C75.8699 10.738 75.8353 10.5647 75.8353 10.374V9.126L81.2952 8.918V5.902L75.8353 5.694V4.368C75.8353 4.108 75.9219 3.91733 76.0953 3.796C76.2686 3.65733 76.5113 3.588 76.8232 3.588H82.3353V0.441999C82.0406 0.407333 81.7286 0.381333 81.3993 0.364C81.0699 0.329333 80.7146 0.303333 80.3333 0.286C79.9519 0.251332 79.5273 0.225332 79.0592 0.207999C78.6086 0.173333 78.0886 0.156 77.4993 0.156C76.9099 0.138667 76.2426 0.13 75.4973 0.13C74.9079 0.13 74.3099 0.234 73.7032 0.441999C73.0966 0.632666 72.5853 0.979333 72.1693 1.482ZM95.351 0.13H83.495V3.718H87.291V14.69H91.555V3.718H95.351V0.13Z" fill="white"/>
</g>
<defs>
<clipPath id="clip0_407_114">
<rect width="95.351" height="14.82" fill="white"/>
</clipPath>
</defs>
</svg>
