<svg width="46" height="34" viewBox="0 0 46 34" fill="none" xmlns="http://www.w3.org/2000/svg">
<path d="M30.6141 25.4236V4.7124C30.6141 3.02668 29.111 1.66016 27.2567 1.66016H5.57963C3.72536 1.66016 2.22217 3.02668 2.22217 4.7124V24.9355C2.22217 26.6213 3.72536 27.9877 5.57963 27.9877H8.09773" stroke="white" stroke-width="2.5" stroke-linecap="round" stroke-linejoin="round"/>
<path d="M44.51 16.105H30.6187" stroke="white" stroke-width="2.5" stroke-linecap="round" stroke-linejoin="round"/>
<path d="M39.9916 27.4181H41.1489C43.0032 27.4181 44.5064 26.0516 44.5064 24.3658V15.2062L39.8314 6.5047C39.2684 5.45668 38.0976 4.79199 36.8144 4.79199H31.2192" stroke="white" stroke-width="2.5" stroke-linecap="round" stroke-linejoin="round"/>
<path d="M12.9512 32.3402C15.5398 32.3402 17.6382 30.4325 17.6382 28.0793C17.6382 25.726 15.5398 23.8184 12.9512 23.8184C10.3626 23.8184 8.26416 25.726 8.26416 28.0793C8.26416 30.4325 10.3626 32.3402 12.9512 32.3402Z" stroke="white" stroke-width="2.5" stroke-linecap="round" stroke-linejoin="round"/>
<path d="M34.2276 32.3402C36.8161 32.3402 38.9146 30.4325 38.9146 28.0793C38.9146 25.726 36.8161 23.8184 34.2276 23.8184C31.639 23.8184 29.5405 25.726 29.5405 28.0793C29.5405 30.4325 31.639 32.3402 34.2276 32.3402Z" stroke="white" stroke-width="2.5" stroke-linecap="round" stroke-linejoin="round"/>
<path d="M28.6614 27.9878H18.7988" stroke="white" stroke-width="2.5" stroke-linecap="round" stroke-linejoin="round"/>
</svg>
