<svg width="46" height="46" viewBox="0 0 46 46" fill="none" xmlns="http://www.w3.org/2000/svg">
<path d="M23.8143 43.9271C23.061 44.2176 22.2266 44.2176 21.4733 43.9271C15.5958 41.6704 10.5411 37.6843 6.97685 32.4945C3.41255 27.3048 1.50645 21.156 1.51026 14.8602V5.1063C1.51026 4.24401 1.85281 3.41699 2.46255 2.80727C3.0723 2.19753 3.89928 1.85498 4.76157 1.85498H40.5261C41.3883 1.85498 42.2154 2.19753 42.8251 2.80727C43.4349 3.41699 43.7775 4.24401 43.7775 5.1063V14.8602C43.7811 21.156 41.8751 27.3048 38.3109 32.4945C34.7464 37.6843 29.6918 41.6704 23.8143 43.9271Z" stroke="white" stroke-width="2.5" stroke-linecap="round" stroke-linejoin="round"/>
<path d="M32.4911 13.1655L19.3779 27.9178L12.8213 23.0004" stroke="white" stroke-width="2.5" stroke-linecap="round" stroke-linejoin="round"/>
</svg>
