<svg width="46" height="46" viewBox="0 0 46 46" fill="none" xmlns="http://www.w3.org/2000/svg">
<path d="M22.7773 2V14.9232" stroke="white" stroke-width="2.5" stroke-linecap="round" stroke-linejoin="round"/>
<path d="M1.77734 14.9224H43.7778V40.7688C43.7778 41.6256 43.4372 42.4475 42.8315 43.0533C42.2257 43.6591 41.4038 43.9996 40.547 43.9996H5.00815C4.15127 43.9996 3.32952 43.6591 2.72362 43.0533C2.11773 42.4475 1.77734 41.6256 1.77734 40.7688V14.9224Z" stroke="white" stroke-width="2.5" stroke-linecap="round" stroke-linejoin="round"/>
<path d="M1.77734 14.9232L6.62355 5.58619C7.146 4.53382 7.94549 3.64383 8.93603 3.01194C9.92656 2.38005 11.0706 2.03019 12.2451 2H33.31C34.5122 2.00064 35.6901 2.33661 36.712 2.97014C37.7336 3.60368 38.5581 4.50965 39.0931 5.58619L43.7778 14.9232" stroke="white" stroke-width="2.5" stroke-linecap="round" stroke-linejoin="round"/>
<path d="M30.8483 23L21.1677 35.9232L14.7061 31.0829" stroke="white" stroke-width="2.5" stroke-linecap="round" stroke-linejoin="round"/>
</svg>
