<svg width="23" height="25" viewBox="0 0 23 25" fill="none" xmlns="http://www.w3.org/2000/svg">
<g clip-path="url(#clip0_186_686)">
<path d="M21.25 23.7021C21.25 21.9992 21.25 21.1478 21.0347 20.4549C20.5499 18.895 19.2994 17.6743 17.7014 17.2011C16.9917 16.991 16.1195 16.991 14.375 16.991H8.12501C6.38055 16.991 5.50832 16.991 4.79857 17.2011C3.20057 17.6743 1.95005 18.895 1.4653 20.4549C1.25 21.1478 1.25 21.9992 1.25 23.7021M16.875 7.22941C16.875 10.2619 14.3566 12.7203 11.25 12.7203C8.1434 12.7203 5.625 10.2619 5.625 7.22941C5.625 4.19688 8.1434 1.73853 11.25 1.73853C14.3566 1.73853 16.875 4.19688 16.875 7.22941Z" stroke="black" stroke-width="1.5" stroke-linecap="round" stroke-linejoin="round"/>
</g>
<defs>
<clipPath id="clip0_186_686">
<rect width="22" height="24" fill="white" transform="translate(0.0454102 0.5)"/>
</clipPath>
</defs>
</svg>
