<svg width="20" height="20" viewBox="0 0 20 20" fill="none" xmlns="http://www.w3.org/2000/svg">
<path d="M10.0015 1.25C5.16943 1.25 1.25146 5.16797 1.25146 10C1.25146 13.582 3.40771 16.6602 6.48975 18.0156C6.46631 17.4063 6.48584 16.6719 6.64209 16.0078C6.81006 15.2969 7.76709 11.2383 7.76709 11.2383C7.76709 11.2383 7.48584 10.6797 7.48584 9.85547C7.48584 8.55859 8.23584 7.58984 9.17334 7.58984C9.97021 7.58984 10.353 8.1875 10.353 8.90234C10.353 9.70313 9.84131 10.8984 9.57959 12.0078C9.36084 12.9375 10.0444 13.6914 10.9624 13.6914C12.6187 13.6914 13.7358 11.5625 13.7358 9.03906C13.7358 7.12109 12.4429 5.6875 10.0952 5.6875C7.44287 5.6875 5.78662 7.66797 5.78662 9.87891C5.78662 10.6406 6.01318 11.1797 6.36475 11.5938C6.5249 11.7852 6.54834 11.8633 6.48975 12.082C6.44678 12.2422 6.35303 12.6289 6.31006 12.7852C6.25146 13.0078 6.07178 13.0859 5.87256 13.0039C4.6499 12.5039 4.07959 11.168 4.07959 9.66016C4.07959 7.17578 6.17725 4.19531 10.3335 4.19531C13.6733 4.19531 15.8726 6.61328 15.8726 9.20703C15.8726 12.6406 13.9624 15.2031 11.1499 15.2031C10.2046 15.2031 9.31787 14.6914 9.01318 14.1133C9.01318 14.1133 8.50537 16.1289 8.396 16.5195C8.2124 17.1953 7.84912 17.8672 7.51709 18.3945C8.32251 18.6321 9.15782 18.7532 9.99756 18.7539C14.8296 18.7539 18.7476 14.8359 18.7476 10.0039C18.7476 5.17188 14.8335 1.25 10.0015 1.25Z" fill="#F2F1F4"/>
</svg>
