<svg width="35" height="34" viewBox="0 0 35 34" fill="none" xmlns="http://www.w3.org/2000/svg">
<path d="M18.3856 32.8352C17.8156 33.0549 17.1842 33.0549 16.6143 32.8352C12.1669 31.1275 8.34207 28.1113 5.64507 24.1843C2.94804 20.2574 1.50573 15.6047 1.50861 10.8408V3.46021C1.50861 2.80773 1.76781 2.18194 2.22919 1.72058C2.69057 1.2592 3.31634 1 3.96881 1H31.0311C31.6835 1 32.3094 1.2592 32.7707 1.72058C33.2321 2.18194 33.4914 2.80773 33.4914 3.46021V10.8408C33.4941 15.6047 32.0519 20.2574 29.3549 24.1843C26.6578 28.1113 22.833 31.1275 18.3856 32.8352Z" stroke="black" stroke-width="2" stroke-linecap="round" stroke-linejoin="round"/>
<path d="M24.9503 9.55859L15.0278 20.7214L10.0666 17.0005" stroke="black" stroke-width="2" stroke-linecap="round" stroke-linejoin="round"/>
</svg>
