<svg width="16" height="17" viewBox="0 0 16 17" fill="none" xmlns="http://www.w3.org/2000/svg">
<g clip-path="url(#clip0_340_1003)">
<path d="M14.7425 15.7609C14.7425 14.6081 14.7425 14.0316 14.599 13.5626C14.2758 12.5065 13.4421 11.6801 12.3768 11.3597C11.9036 11.2174 11.3221 11.2174 10.1592 11.2174H5.99252C4.82954 11.2174 4.24806 11.2174 3.77489 11.3597C2.70956 11.6801 1.87588 12.5065 1.55271 13.5626C1.40918 14.0316 1.40918 14.6081 1.40918 15.7609M11.8258 4.60875C11.8258 6.66181 10.1469 8.32614 8.07585 8.32614C6.00478 8.32614 4.32585 6.66181 4.32585 4.60875C4.32585 2.55569 6.00478 0.891357 8.07585 0.891357C10.1469 0.891357 11.8258 2.55569 11.8258 4.60875Z" stroke="black" stroke-width="1.5" stroke-linecap="round" stroke-linejoin="round"/>
</g>
<defs>
<clipPath id="clip0_340_1003">
<rect width="16" height="17" fill="white"/>
</clipPath>
</defs>
</svg>
