<svg width="20" height="20" viewBox="0 0 20 20" fill="none" xmlns="http://www.w3.org/2000/svg">
<path d="M18.9 8.92327C19.1369 9.21858 19.268 9.60225 19.268 10.0001C19.268 10.3979 19.1369 10.7816 18.9 11.0769C17.4 12.893 13.9857 16.4287 9.99999 16.4287C6.01428 16.4287 2.59999 12.893 1.09999 11.0769C0.863075 10.7816 0.731934 10.3979 0.731934 10.0001C0.731934 9.60225 0.863075 9.21858 1.09999 8.92327C2.59999 7.10717 6.01428 3.57141 9.99999 3.57141C13.9857 3.57141 17.4 7.10717 18.9 8.92327Z" stroke="black" stroke-linecap="round" stroke-linejoin="round"/>
<path d="M9.99997 12.8571C11.5779 12.8571 12.8571 11.5779 12.8571 9.99997C12.8571 8.42201 11.5779 7.14282 9.99997 7.14282C8.42201 7.14282 7.14282 8.42201 7.14282 9.99997C7.14282 11.5779 8.42201 12.8571 9.99997 12.8571Z" stroke="black" stroke-linecap="round" stroke-linejoin="round"/>
</svg>
