<svg width="28" height="29" viewBox="0 0 28 29" fill="none" xmlns="http://www.w3.org/2000/svg">
<g clip-path="url(#clip0_186_688)">
<path d="M18.6257 10.587V6.67393C18.6257 3.79245 16.2378 1.45654 13.2923 1.45654C10.3468 1.45654 7.95899 3.79245 7.95899 6.67394V10.587M2.08166 12.3504L1.28166 20.6982C1.0542 23.0718 0.940465 24.2585 1.34306 25.1752C1.69672 25.9804 2.31648 26.6462 3.10301 27.0658C3.99836 27.5435 5.21681 27.5435 7.65372 27.5435H18.9309C21.3678 27.5435 22.5863 27.5435 23.4816 27.0658C24.2682 26.6462 24.8879 25.9804 25.2416 25.1752C25.6442 24.2585 25.5304 23.0718 25.303 20.6982L24.503 12.3504C24.3109 10.3461 24.2149 9.34398 23.7541 8.58632C23.3483 7.91904 22.7488 7.38495 22.0318 7.05199C21.2176 6.67394 20.1887 6.67394 18.1309 6.67394L8.45372 6.67394C6.39591 6.67393 5.367 6.67393 4.55288 7.05199C3.83587 7.38495 3.23633 7.91904 2.83054 8.58632C2.36978 9.34398 2.27374 10.3461 2.08166 12.3504Z" stroke="black" stroke-width="1.5" stroke-linecap="round" stroke-linejoin="round"/>
</g>
<defs>
<clipPath id="clip0_186_688">
<rect width="27" height="28" fill="white" transform="translate(0.0454102 0.5)"/>
</clipPath>
</defs>
</svg>
