<svg width="33" height="31" viewBox="0 0 33 31" fill="none" xmlns="http://www.w3.org/2000/svg">
<path d="M21.55 11.1304V7.21739C21.55 4.33591 19.1622 2 16.2166 2C13.2711 2 10.8833 4.33591 10.8833 7.21739V11.1304M5.00598 12.8939L4.20598 21.2417C3.97851 23.6152 3.86478 24.802 4.26737 25.7186C4.62104 26.5239 5.2408 27.1896 6.02733 27.6093C6.92267 28.087 8.14113 28.087 10.578 28.087H21.8552C24.2921 28.087 25.5106 28.087 26.4059 27.6093C27.1925 27.1896 27.8122 26.5239 28.1659 25.7186C28.5685 24.802 28.4548 23.6152 28.2273 21.2417L27.4273 12.8939C27.2352 10.8896 27.1392 9.88744 26.6784 9.12978C26.2726 8.4625 25.6731 7.92841 24.9561 7.59545C24.142 7.21739 23.1131 7.21739 21.0552 7.21739L11.378 7.21739C9.32022 7.21739 8.29132 7.21739 7.4772 7.59545C6.76019 7.9284 6.16065 8.4625 5.75485 9.12978C5.29409 9.88744 5.19805 10.8896 5.00598 12.8939Z" stroke="black" stroke-width="2" stroke-linecap="round" stroke-linejoin="round"/>
</svg>
