<svg width="21" height="21" viewBox="0 0 21 21" fill="none" xmlns="http://www.w3.org/2000/svg">
<path d="M14.1026 7.8914V5.2827C14.1026 3.36171 12.5356 1.80444 10.6026 1.80444C8.66962 1.80444 7.10262 3.36171 7.10262 5.2827V7.8914M3.24562 9.06702L2.72062 14.6322C2.57135 16.2146 2.49671 17.0058 2.76091 17.6169C2.993 18.1537 3.39972 18.5975 3.91588 18.8773C4.50345 19.1957 5.30306 19.1957 6.90228 19.1957H14.3029C15.9022 19.1957 16.7018 19.1957 17.2893 18.8773C17.8055 18.5975 18.2122 18.1537 18.4443 17.6169C18.7085 17.0058 18.6339 16.2146 18.4846 14.6322L17.9596 9.06702C17.8336 7.73083 17.7705 7.06274 17.4682 6.55763C17.2019 6.11278 16.8084 5.75671 16.3379 5.53474C15.8036 5.28271 15.1284 5.28271 13.778 5.28271L7.42728 5.2827C6.07685 5.2827 5.40163 5.2827 4.86736 5.53474C4.39682 5.75671 4.00337 6.11278 3.73707 6.55763C3.4347 7.06273 3.37167 7.73083 3.24562 9.06702Z" stroke="black" stroke-width="1.5" stroke-linecap="round" stroke-linejoin="round"/>
</svg>
