<svg width="47" height="34" viewBox="0 0 47 34" fill="none" xmlns="http://www.w3.org/2000/svg">
<path d="M31.0601 25.7871V4.18373C31.0601 2.42539 29.4922 1 27.5581 1H4.94801C3.01394 1 1.44604 2.42539 1.44604 4.18373V25.278C1.44604 27.0364 3.01394 28.4617 4.94801 28.4617H7.5745" stroke="black" stroke-width="2" stroke-linecap="round" stroke-linejoin="round"/>
<path d="M45.5539 16.0674H31.0647" stroke="black" stroke-width="2" stroke-linecap="round" stroke-linejoin="round"/>
<path d="M40.8409 27.8674H42.048C43.9821 27.8674 45.55 26.442 45.55 24.6836V15.1295L40.6738 6.05309C40.0865 4.95992 38.8654 4.2666 37.5269 4.2666H31.6909" stroke="black" stroke-width="2" stroke-linecap="round" stroke-linejoin="round"/>
<path d="M12.6366 33.0003C15.3366 33.0003 17.5254 31.0104 17.5254 28.5558C17.5254 26.1012 15.3366 24.1113 12.6366 24.1113C9.93664 24.1113 7.74786 26.1012 7.74786 28.5558C7.74786 31.0104 9.93664 33.0003 12.6366 33.0003Z" stroke="black" stroke-width="2" stroke-linecap="round" stroke-linejoin="round"/>
<path d="M34.8291 33.0003C37.5291 33.0003 39.7179 31.0104 39.7179 28.5558C39.7179 26.1012 37.5291 24.1113 34.8291 24.1113C32.1291 24.1113 29.9404 26.1012 29.9404 28.5558C29.9404 31.0104 32.1291 33.0003 34.8291 33.0003Z" stroke="black" stroke-width="2" stroke-linecap="round" stroke-linejoin="round"/>
<path d="M29.0227 28.4629H18.7356" stroke="black" stroke-width="2" stroke-linecap="round" stroke-linejoin="round"/>
</svg>
