<svg width="20" height="19" viewBox="0 0 20 19" fill="none" xmlns="http://www.w3.org/2000/svg">
<path d="M16.7425 17.7609C16.7425 16.6081 16.7425 16.0316 16.599 15.5626C16.2758 14.5065 15.4421 13.6801 14.3768 13.3597C13.9036 13.2174 13.3221 13.2174 12.1592 13.2174H7.99252C6.82954 13.2174 6.24806 13.2174 5.77489 13.3597C4.70956 13.6801 3.87588 14.5065 3.55271 15.5626C3.40918 16.0316 3.40918 16.6081 3.40918 17.7609M13.8258 6.60875C13.8258 8.66181 12.1469 10.3261 10.0758 10.3261C8.00478 10.3261 6.32585 8.66181 6.32585 6.60875C6.32585 4.55569 8.00478 2.89136 10.0758 2.89136C12.1469 2.89136 13.8258 4.55569 13.8258 6.60875Z" stroke="black" stroke-width="1.5" stroke-linecap="round" stroke-linejoin="round"/>
</svg>
