<svg width="23" height="25" viewBox="0 0 23 25" fill="none" xmlns="http://www.w3.org/2000/svg">
<path d="M21.0789 21.6211C21.1057 21.8585 21.0816 22.0988 21.0087 22.3265C20.9357 22.5539 20.8156 22.7634 20.6558 22.9411C20.4958 23.1185 20.2998 23.2601 20.0811 23.3562C19.8623 23.4525 19.6256 23.5015 19.3866 23.4996H2.86982C2.63082 23.5015 2.39415 23.4525 2.17539 23.3562C1.95662 23.2601 1.76072 23.1185 1.6006 22.9411C1.4409 22.7634 1.32064 22.5539 1.24772 22.3265C1.1748 22.0988 1.15087 21.8585 1.17752 21.6211L2.66675 8.26855H19.5897L21.0789 21.6211Z" stroke="black" stroke-width="2" stroke-linecap="round" stroke-linejoin="round"/>
<path d="M6.89815 8.26935V5.73084C6.89815 4.60876 7.34388 3.53261 8.1373 2.73918C8.93072 1.94575 10.0068 1.5 11.1289 1.5C12.251 1.5 13.3271 1.94575 14.1205 2.73918C14.9139 3.53261 15.3596 4.60876 15.3596 5.73084V8.26935" stroke="black" stroke-width="2" stroke-linecap="round" stroke-linejoin="round"/>
</svg>
