<svg width="30" height="29" viewBox="0 0 30 29" fill="none" xmlns="http://www.w3.org/2000/svg">
<path d="M25.1133 26.2454C25.1133 24.5425 25.1133 23.6911 24.898 22.9983C24.4132 21.4384 23.1627 20.2177 21.5647 19.7445C20.855 19.5343 19.9827 19.5343 18.2383 19.5343H11.9883C10.2438 19.5343 9.3716 19.5343 8.66185 19.7445C7.06385 20.2177 5.81333 21.4384 5.32858 22.9983C5.11328 23.6911 5.11328 24.5425 5.11328 26.2454M20.7383 9.77274C20.7383 12.8053 18.2199 15.2636 15.1133 15.2636C12.0067 15.2636 9.48828 12.8053 9.48828 9.77274C9.48828 6.74021 12.0067 4.28186 15.1133 4.28186C18.2199 4.28186 20.7383 6.74021 20.7383 9.77274Z" stroke="black" stroke-width="2" stroke-linecap="round" stroke-linejoin="round"/>
</svg>
