<svg width="17" height="17" viewBox="0 0 17 17" fill="none" xmlns="http://www.w3.org/2000/svg">
<g clip-path="url(#clip0_340_1005)">
<path d="M11.7233 6.16595V3.83185C11.7233 2.11307 10.3212 0.719727 8.59171 0.719727C6.86219 0.719727 5.46013 2.11307 5.46013 3.83186V6.16595M2.00914 7.21782L1.5394 12.1972C1.40584 13.613 1.33906 14.3209 1.57545 14.8677C1.78311 15.348 2.14702 15.7451 2.60885 15.9954C3.13457 16.2804 3.85001 16.2804 5.28089 16.2804H11.9025C13.3334 16.2804 14.0489 16.2804 14.5746 15.9954C15.0364 15.7451 15.4003 15.348 15.608 14.8677C15.8444 14.3209 15.7776 13.613 15.644 12.1972L15.1743 7.21782C15.0615 6.02228 15.0051 5.42451 14.7346 4.97258C14.4963 4.57455 14.1443 4.25597 13.7233 4.05736C13.2452 3.83186 12.6411 3.83186 11.4328 3.83186L5.75063 3.83186C4.54234 3.83186 3.9382 3.83185 3.46017 4.05736C3.03916 4.25597 2.68713 4.57455 2.44886 4.97258C2.17831 5.42451 2.12192 6.02228 2.00914 7.21782Z" stroke="black" stroke-width="1.5" stroke-linecap="round" stroke-linejoin="round"/>
</g>
<defs>
<clipPath id="clip0_340_1005">
<rect width="17" height="17" fill="white"/>
</clipPath>
</defs>
</svg>
