<svg width="21" height="23" viewBox="0 0 21 23" fill="none" xmlns="http://www.w3.org/2000/svg">
<g clip-path="url(#clip0_359_466)">
<path d="M19.4379 21.768C19.4379 20.207 19.4379 19.4266 19.2405 18.7915C18.7962 17.3616 17.6499 16.2426 16.185 15.8088C15.5344 15.6162 14.7349 15.6162 13.1358 15.6162H7.40663C5.80754 15.6162 5.008 15.6162 4.3574 15.8088C2.89256 16.2426 1.74625 17.3616 1.3019 18.7915C1.10454 19.4266 1.10454 20.207 1.10454 21.768M15.4275 6.66807C15.4275 9.44789 13.1189 11.7014 10.2712 11.7014C7.42349 11.7014 5.11496 9.44789 5.11496 6.66807C5.11496 3.88825 7.42349 1.63477 10.2712 1.63477C13.1189 1.63477 15.4275 3.88825 15.4275 6.66807Z" stroke="black" stroke-width="2" stroke-linecap="round" stroke-linejoin="round"/>
</g>
<defs>
<clipPath id="clip0_359_466">
<rect width="20.1667" height="22" fill="white" transform="translate(0.000350952 0.5)"/>
</clipPath>
</defs>
</svg>
