<svg width="84" height="23" viewBox="0 0 84 23" fill="none" xmlns="http://www.w3.org/2000/svg">
<path d="M0.18 18.3333L4.248 4.97725H8.136L12.204 18.3333H8.982L8.298 15.9033H4.05L3.384 18.3333H0.18ZM4.77 13.1133H7.578L6.174 7.64125L4.77 13.1133ZM18.1924 18.4413C17.4244 18.4413 16.7404 18.3513 16.1404 18.1713C15.5524 17.9913 15.0424 17.6613 14.6104 17.1813C14.1904 16.7013 13.8664 16.0113 13.6384 15.1113C13.4224 14.2113 13.3144 13.0473 13.3144 11.6193C13.3144 10.2273 13.4284 9.09325 13.6564 8.21725C13.8964 7.32925 14.2264 6.64525 14.6464 6.16525C15.0784 5.67325 15.5944 5.33125 16.1944 5.13925C16.7944 4.94725 17.4664 4.85125 18.2104 4.85125C18.8824 4.85125 19.4944 4.88725 20.0464 4.95925C20.5984 5.03125 21.0784 5.12125 21.4864 5.22925C21.8944 5.32525 22.2304 5.42725 22.4944 5.53525V7.94725C22.2664 7.89925 21.9724 7.85125 21.6124 7.80325C21.2524 7.75525 20.8384 7.71925 20.3704 7.69525C19.9024 7.65925 19.4044 7.64125 18.8764 7.64125C18.4324 7.64125 18.0484 7.68925 17.7244 7.78525C17.4124 7.88125 17.1604 8.07325 16.9684 8.36125C16.7884 8.63725 16.6504 9.03925 16.5544 9.56725C16.4704 10.0953 16.4284 10.7853 16.4284 11.6373C16.4284 12.4413 16.4644 13.1073 16.5364 13.6353C16.6084 14.1633 16.7344 14.5713 16.9144 14.8593C17.0944 15.1473 17.3404 15.3513 17.6524 15.4713C17.9764 15.5913 18.3904 15.6513 18.8944 15.6513C19.8064 15.6513 20.5444 15.6333 21.1084 15.5973C21.6844 15.5613 22.1464 15.5193 22.4944 15.4713V17.8833C22.1824 18.0033 21.8224 18.1053 21.4144 18.1893C21.0064 18.2613 20.5384 18.3213 20.0104 18.3693C19.4824 18.4173 18.8764 18.4413 18.1924 18.4413ZM27.3344 18.3333V7.76725H23.8244V4.97725H33.9404V7.76725H30.4304V18.3333H27.3344ZM35.6459 18.3333V4.97725H38.7599V18.3333H35.6459ZM41.2442 18.3333V8.18125C41.2442 7.55725 41.3402 7.03525 41.5322 6.61525C41.7362 6.19525 41.9882 5.87125 42.2882 5.64325C42.6002 5.40325 42.9482 5.23525 43.3322 5.13925C43.7162 5.03125 44.0882 4.97725 44.4482 4.97725C44.8442 4.97725 45.3662 4.98325 46.0142 4.99525C46.6742 5.00725 47.3762 5.03125 48.1202 5.06725C48.8762 5.10325 49.5962 5.16325 50.2802 5.24725V7.85725H45.3302C44.9942 7.85725 44.7482 7.94725 44.5922 8.12725C44.4362 8.30725 44.3582 8.51725 44.3582 8.75725V10.6293L49.3982 10.7913V13.2573L44.3582 13.4193V18.3333H41.2442ZM55.4124 18.4413C55.1244 18.4413 54.7824 18.4113 54.3864 18.3513C54.0024 18.2913 53.6304 18.1653 53.2704 17.9733C52.9104 17.7693 52.6104 17.4633 52.3704 17.0553C52.1304 16.6353 52.0104 16.0713 52.0104 15.3633V8.18125C52.0104 7.55725 52.1064 7.03525 52.2984 6.61525C52.5024 6.19525 52.7544 5.87125 53.0544 5.64325C53.3664 5.40325 53.7144 5.23525 54.0984 5.13925C54.4824 5.03125 54.8544 4.97725 55.2144 4.97725C56.1744 4.97725 57.0084 4.99525 57.7164 5.03125C58.4244 5.05525 59.0484 5.08525 59.5884 5.12125C60.1284 5.15725 60.6144 5.19325 61.0464 5.22925V7.85725H56.1504C55.8264 7.85725 55.5744 7.93525 55.3944 8.09125C55.2144 8.23525 55.1244 8.46925 55.1244 8.79325V10.2693L60.1644 10.4493V12.8973L55.1244 13.0593V14.4633C55.1244 14.7273 55.1664 14.9373 55.2504 15.0933C55.3344 15.2373 55.4484 15.3453 55.5924 15.4173C55.7364 15.4893 55.8924 15.5253 56.0604 15.5253H61.0464V18.1353C60.5184 18.1953 59.9304 18.2493 59.2824 18.2973C58.6344 18.3453 57.9744 18.3753 57.3024 18.3873C56.6424 18.4113 56.0124 18.4293 55.4124 18.4413ZM66.4072 18.4413C66.1192 18.4413 65.7772 18.4113 65.3812 18.3513C64.9972 18.2913 64.6252 18.1653 64.2652 17.9733C63.9052 17.7693 63.6052 17.4633 63.3652 17.0553C63.1252 16.6353 63.0052 16.0713 63.0052 15.3633V8.18125C63.0052 7.55725 63.1012 7.03525 63.2932 6.61525C63.4972 6.19525 63.7492 5.87125 64.0492 5.64325C64.3612 5.40325 64.7092 5.23525 65.0932 5.13925C65.4772 5.03125 65.8492 4.97725 66.2092 4.97725C67.1692 4.97725 68.0032 4.99525 68.7112 5.03125C69.4192 5.05525 70.0432 5.08525 70.5832 5.12125C71.1232 5.15725 71.6092 5.19325 72.0412 5.22925V7.85725H67.1452C66.8212 7.85725 66.5692 7.93525 66.3892 8.09125C66.2092 8.23525 66.1192 8.46925 66.1192 8.79325V10.2693L71.1592 10.4493V12.8973L66.1192 13.0593V14.4633C66.1192 14.7273 66.1612 14.9373 66.2452 15.0933C66.3292 15.2373 66.4432 15.3453 66.5872 15.4173C66.7312 15.4893 66.8872 15.5253 67.0552 15.5253H72.0412V18.1353C71.5132 18.1953 70.9252 18.2493 70.2772 18.2973C69.6292 18.3453 68.9692 18.3753 68.2972 18.3873C67.6372 18.4113 67.0072 18.4293 66.4072 18.4413ZM76.9117 18.3333V7.76725H73.4017V4.97725H83.5177V7.76725H80.0077V18.3333H76.9117Z" fill="black"/>
<path d="M0.09 18.3333L4.05 4.95925H8.406L12.366 18.3333H8.748L8.208 16.2093H4.194L3.672 18.3333H0.09ZM5.004 13.0773H7.398L6.192 7.92925L5.004 13.0773Z" fill="#1A2EE0"/>
<rect y="9" width="12" height="1.55556" fill="white"/>
</svg>
