<svg width="112" height="29" viewBox="0 0 112 29" fill="none" xmlns="http://www.w3.org/2000/svg">
<path d="M0.24 24L5.664 6.192H10.848L16.272 24H11.976L11.064 20.76H5.4L4.512 24H0.24ZM6.36 17.04H10.104L8.232 9.744L6.36 17.04ZM24.2565 24.144C23.2325 24.144 22.3205 24.024 21.5205 23.784C20.7365 23.544 20.0565 23.104 19.4805 22.464C18.9205 21.824 18.4885 20.904 18.1845 19.704C17.8965 18.504 17.7525 16.952 17.7525 15.048C17.7525 13.192 17.9045 11.68 18.2085 10.512C18.5285 9.328 18.9685 8.416 19.5285 7.776C20.1045 7.12 20.7925 6.664 21.5925 6.408C22.3925 6.152 23.2885 6.024 24.2805 6.024C25.1765 6.024 25.9925 6.072 26.7285 6.168C27.4645 6.264 28.1045 6.384 28.6485 6.528C29.1925 6.656 29.6405 6.792 29.9925 6.936V10.152C29.6885 10.088 29.2965 10.024 28.8165 9.96C28.3365 9.896 27.7845 9.848 27.1605 9.816C26.5365 9.768 25.8725 9.744 25.1685 9.744C24.5765 9.744 24.0645 9.808 23.6325 9.936C23.2165 10.064 22.8805 10.32 22.6245 10.704C22.3845 11.072 22.2005 11.608 22.0725 12.312C21.9605 13.016 21.9045 13.936 21.9045 15.072C21.9045 16.144 21.9525 17.032 22.0485 17.736C22.1445 18.44 22.3125 18.984 22.5525 19.368C22.7925 19.752 23.1205 20.024 23.5365 20.184C23.9685 20.344 24.5205 20.424 25.1925 20.424C26.4085 20.424 27.3925 20.4 28.1445 20.352C28.9125 20.304 29.5285 20.248 29.9925 20.184V23.4C29.5765 23.56 29.0965 23.696 28.5525 23.808C28.0085 23.904 27.3845 23.984 26.6805 24.048C25.9765 24.112 25.1685 24.144 24.2565 24.144ZM36.4459 24V9.912H31.7659V6.192H45.2539V9.912H40.5739V24H36.4459ZM47.5279 24V6.192H51.6799V24H47.5279ZM54.9922 24V10.464C54.9922 9.632 55.1202 8.936 55.3762 8.376C55.6482 7.816 55.9842 7.384 56.3842 7.08C56.8002 6.76 57.2642 6.536 57.7762 6.408C58.2882 6.264 58.7842 6.192 59.2642 6.192C59.7922 6.192 60.4882 6.2 61.3522 6.216C62.2322 6.232 63.1682 6.264 64.1602 6.312C65.1682 6.36 66.1282 6.44 67.0402 6.552V10.032H60.4402C59.9922 10.032 59.6642 10.152 59.4562 10.392C59.2482 10.632 59.1442 10.912 59.1442 11.232V13.728L65.8642 13.944V17.232L59.1442 17.448V24H54.9922ZM73.8833 24.144C73.4993 24.144 73.0433 24.104 72.5153 24.024C72.0033 23.944 71.5073 23.776 71.0273 23.52C70.5473 23.248 70.1473 22.84 69.8273 22.296C69.5073 21.736 69.3473 20.984 69.3473 20.04V10.464C69.3473 9.632 69.4753 8.936 69.7313 8.376C70.0033 7.816 70.3393 7.384 70.7393 7.08C71.1553 6.76 71.6193 6.536 72.1313 6.408C72.6433 6.264 73.1393 6.192 73.6193 6.192C74.8993 6.192 76.0113 6.216 76.9553 6.264C77.8993 6.296 78.7313 6.336 79.4513 6.384C80.1713 6.432 80.8193 6.48 81.3953 6.528V10.032H74.8673C74.4353 10.032 74.0993 10.136 73.8593 10.344C73.6193 10.536 73.4993 10.848 73.4993 11.28V13.248L80.2193 13.488V16.752L73.4993 16.968V18.84C73.4993 19.192 73.5553 19.472 73.6673 19.68C73.7793 19.872 73.9313 20.016 74.1233 20.112C74.3153 20.208 74.5233 20.256 74.7473 20.256H81.3953V23.736C80.6913 23.816 79.9073 23.888 79.0433 23.952C78.1793 24.016 77.2993 24.056 76.4033 24.072C75.5233 24.104 74.6833 24.128 73.8833 24.144ZM88.5429 24.144C88.1589 24.144 87.7029 24.104 87.1749 24.024C86.6629 23.944 86.1669 23.776 85.6869 23.52C85.2069 23.248 84.8069 22.84 84.4869 22.296C84.1669 21.736 84.0069 20.984 84.0069 20.04V10.464C84.0069 9.632 84.1349 8.936 84.3909 8.376C84.6629 7.816 84.9989 7.384 85.3989 7.08C85.8149 6.76 86.2789 6.536 86.7909 6.408C87.3029 6.264 87.7989 6.192 88.2789 6.192C89.5589 6.192 90.6709 6.216 91.6149 6.264C92.5589 6.296 93.3909 6.336 94.1109 6.384C94.8309 6.432 95.4789 6.48 96.0549 6.528V10.032H89.5269C89.0949 10.032 88.7589 10.136 88.5189 10.344C88.2789 10.536 88.1589 10.848 88.1589 11.28V13.248L94.8789 13.488V16.752L88.1589 16.968V18.84C88.1589 19.192 88.2149 19.472 88.3269 19.68C88.4389 19.872 88.5909 20.016 88.7829 20.112C88.9749 20.208 89.1829 20.256 89.4069 20.256H96.0549V23.736C95.3509 23.816 94.5669 23.888 93.7029 23.952C92.8389 24.016 91.9589 24.056 91.0629 24.072C90.1829 24.104 89.3429 24.128 88.5429 24.144ZM102.549 24V9.912H97.869V6.192H111.357V9.912H106.677V24H102.549Z" fill="white"/>
<path d="M0.12 24L5.4 6.168H11.208L16.488 24H11.664L10.944 21.168H5.592L4.896 24H0.12ZM6.672 16.992H9.864L8.256 10.128L6.672 16.992Z" fill="#1A2EE0"/>
<rect x="2" y="12" width="12" height="2.8" fill="#1D1A27"/>
</svg>
