<svg width="112" height="22" viewBox="0 0 112 22" fill="none" xmlns="http://www.w3.org/2000/svg">
<path d="M0.3725 20L5.7965 2.192H10.9805L16.4045 20H12.1085L11.1965 16.76H5.5325L4.6445 20H0.3725ZM6.4925 13.04H10.2365L8.3645 5.744L6.4925 13.04ZM24.389 20.144C23.365 20.144 22.453 20.024 21.653 19.784C20.869 19.544 20.189 19.104 19.613 18.464C19.053 17.824 18.621 16.904 18.317 15.704C18.029 14.504 17.885 12.952 17.885 11.048C17.885 9.192 18.037 7.68 18.341 6.512C18.661 5.328 19.101 4.416 19.661 3.776C20.237 3.12 20.925 2.664 21.725 2.408C22.525 2.152 23.421 2.024 24.413 2.024C25.309 2.024 26.125 2.072 26.861 2.168C27.597 2.264 28.237 2.384 28.781 2.528C29.325 2.656 29.773 2.792 30.125 2.936V6.152C29.821 6.088 29.429 6.024 28.949 5.96C28.469 5.896 27.917 5.848 27.293 5.816C26.669 5.768 26.005 5.744 25.301 5.744C24.709 5.744 24.197 5.808 23.765 5.936C23.349 6.064 23.013 6.32 22.757 6.704C22.517 7.072 22.333 7.608 22.205 8.312C22.093 9.016 22.037 9.936 22.037 11.072C22.037 12.144 22.085 13.032 22.181 13.736C22.277 14.44 22.445 14.984 22.685 15.368C22.925 15.752 23.253 16.024 23.669 16.184C24.101 16.344 24.653 16.424 25.325 16.424C26.541 16.424 27.525 16.4 28.277 16.352C29.045 16.304 29.661 16.248 30.125 16.184V19.4C29.709 19.56 29.229 19.696 28.685 19.808C28.141 19.904 27.517 19.984 26.813 20.048C26.109 20.112 25.301 20.144 24.389 20.144ZM36.5784 20V5.912H31.8984V2.192H45.3864V5.912H40.7064V20H36.5784ZM47.6604 20V2.192H51.8124V20H47.6604ZM55.1247 20V6.464C55.1247 5.632 55.2527 4.936 55.5087 4.376C55.7807 3.816 56.1167 3.384 56.5167 3.08C56.9327 2.76 57.3967 2.536 57.9087 2.408C58.4207 2.264 58.9167 2.192 59.3967 2.192C59.9247 2.192 60.6207 2.2 61.4847 2.216C62.3647 2.232 63.3007 2.264 64.2927 2.312C65.3007 2.36 66.2607 2.44 67.1727 2.552V6.032H60.5727C60.1247 6.032 59.7967 6.152 59.5887 6.392C59.3807 6.632 59.2767 6.912 59.2767 7.232V9.728L65.9967 9.944V13.232L59.2767 13.448V20H55.1247ZM74.0158 20.144C73.6318 20.144 73.1758 20.104 72.6478 20.024C72.1358 19.944 71.6398 19.776 71.1598 19.52C70.6798 19.248 70.2798 18.84 69.9598 18.296C69.6398 17.736 69.4798 16.984 69.4798 16.04V6.464C69.4798 5.632 69.6078 4.936 69.8638 4.376C70.1358 3.816 70.4718 3.384 70.8718 3.08C71.2878 2.76 71.7518 2.536 72.2638 2.408C72.7758 2.264 73.2718 2.192 73.7518 2.192C75.0318 2.192 76.1438 2.216 77.0878 2.264C78.0318 2.296 78.8638 2.336 79.5838 2.384C80.3038 2.432 80.9518 2.48 81.5278 2.528V6.032H74.9998C74.5678 6.032 74.2318 6.136 73.9918 6.344C73.7518 6.536 73.6318 6.848 73.6318 7.28V9.248L80.3518 9.488V12.752L73.6318 12.968V14.84C73.6318 15.192 73.6878 15.472 73.7998 15.68C73.9118 15.872 74.0638 16.016 74.2558 16.112C74.4478 16.208 74.6558 16.256 74.8798 16.256H81.5278V19.736C80.8238 19.816 80.0398 19.888 79.1758 19.952C78.3118 20.016 77.4318 20.056 76.5358 20.072C75.6558 20.104 74.8158 20.128 74.0158 20.144ZM88.6754 20.144C88.2914 20.144 87.8354 20.104 87.3074 20.024C86.7954 19.944 86.2994 19.776 85.8194 19.52C85.3394 19.248 84.9394 18.84 84.6194 18.296C84.2994 17.736 84.1394 16.984 84.1394 16.04V6.464C84.1394 5.632 84.2674 4.936 84.5234 4.376C84.7954 3.816 85.1314 3.384 85.5314 3.08C85.9474 2.76 86.4114 2.536 86.9234 2.408C87.4354 2.264 87.9314 2.192 88.4114 2.192C89.6914 2.192 90.8034 2.216 91.7474 2.264C92.6914 2.296 93.5234 2.336 94.2434 2.384C94.9634 2.432 95.6114 2.48 96.1874 2.528V6.032H89.6594C89.2274 6.032 88.8914 6.136 88.6514 6.344C88.4114 6.536 88.2914 6.848 88.2914 7.28V9.248L95.0114 9.488V12.752L88.2914 12.968V14.84C88.2914 15.192 88.3474 15.472 88.4594 15.68C88.5714 15.872 88.7234 16.016 88.9154 16.112C89.1074 16.208 89.3154 16.256 89.5394 16.256H96.1874V19.736C95.4834 19.816 94.6994 19.888 93.8354 19.952C92.9714 20.016 92.0914 20.056 91.1954 20.072C90.3154 20.104 89.4754 20.128 88.6754 20.144ZM102.682 20V5.912H98.0015V2.192H111.49V5.912H106.81V20H102.682Z" fill="white"/>
<path d="M0.12 20L5.4 2.168H11.208L16.488 20H11.664L10.944 17.168H5.592L4.896 20H0.12ZM6.672 12.992H9.864L8.256 6.128L6.672 12.992Z" fill="white"/>
<rect x="2" y="7.5" width="12" height="2.33333" fill="black"/>
</svg>
